<mxfile host="app.diagrams.net" modified="2021-07-11T06:36:21.386Z" agent="5.0 (Windows NT 10.0; Win64; x64) AppleWebKit/537.36 (KHTML, like Gecko) Chrome/91.0.4472.124 Safari/537.36" etag="mFNBCXifDacxBI3tHcJ0" version="14.8.5" type="github">
  <diagram id="prtHgNgQTEPvFCAcTncT" name="Page-1">
    <mxGraphModel dx="1543" dy="1230" grid="1" gridSize="10" guides="1" tooltips="1" connect="1" arrows="1" fold="1" page="1" pageScale="1" pageWidth="827" pageHeight="1169" math="0" shadow="0">
      <root>
        <mxCell id="0" />
        <mxCell id="1" parent="0" />
        <mxCell id="DmJhWEfxrVPuvcuLkCye-24" value="" style="shape=trapezoid;perimeter=trapezoidPerimeter;whiteSpace=wrap;html=1;fixedSize=1;fontSize=14;size=230;fillColor=#dae8fc;strokeColor=#6c8ebf;gradientColor=#7ea6e0;gradientDirection=north;" parent="1" vertex="1">
          <mxGeometry x="830" y="710" width="1080" height="296.25" as="geometry" />
        </mxCell>
        <mxCell id="DmJhWEfxrVPuvcuLkCye-23" value="" style="shape=trapezoid;perimeter=trapezoidPerimeter;whiteSpace=wrap;html=1;fixedSize=1;fontSize=14;size=270;fillColor=#fff2cc;strokeColor=#d6b656;gradientColor=#ffd966;" parent="1" vertex="1">
          <mxGeometry x="840" y="1169" width="1070" height="391" as="geometry" />
        </mxCell>
        <mxCell id="DmJhWEfxrVPuvcuLkCye-19" value="" style="verticalLabelPosition=bottom;outlineConnect=0;align=center;dashed=0;html=1;verticalAlign=top;shape=mxgraph.pid.misc.ship;strokeColor=#660033;" parent="1" vertex="1">
          <mxGeometry x="975" y="1430" width="105" height="60" as="geometry" />
        </mxCell>
        <mxCell id="DmJhWEfxrVPuvcuLkCye-2" value="关系型数据库" style="shape=datastore;whiteSpace=wrap;html=1;fillColor=#d5e8d4;strokeColor=#82b366;gradientColor=#97d077;fontColor=#006600;fontSize=18;" parent="1" vertex="1">
          <mxGeometry x="1320" y="762.5" width="110" height="75" as="geometry" />
        </mxCell>
        <mxCell id="DmJhWEfxrVPuvcuLkCye-4" value="" style="verticalLabelPosition=bottom;outlineConnect=0;align=center;dashed=0;html=1;verticalAlign=top;shape=mxgraph.pid.misc.ship;strokeColor=#CC0066;" parent="1" vertex="1">
          <mxGeometry x="1450" y="1460" width="105" height="60" as="geometry" />
        </mxCell>
        <mxCell id="DmJhWEfxrVPuvcuLkCye-5" value="执勤点信息" style="text;html=1;strokeColor=none;fillColor=none;align=center;verticalAlign=middle;whiteSpace=wrap;rounded=0;fontSize=18;fontColor=#1A3300;" parent="1" vertex="1">
          <mxGeometry x="1320" y="742.5" width="120" height="20" as="geometry" />
        </mxCell>
        <mxCell id="DmJhWEfxrVPuvcuLkCye-15" value="数据接入服务" style="rounded=0;whiteSpace=wrap;html=1;fontSize=18;fillColor=#fff2cc;strokeColor=#d6b656;gradientDirection=south;gradientColor=#ffd966;fontColor=#666600;" parent="1" vertex="1">
          <mxGeometry x="950" y="860" width="210" height="60" as="geometry" />
        </mxCell>
        <mxCell id="DmJhWEfxrVPuvcuLkCye-16" value="执法船" style="text;html=1;strokeColor=none;fillColor=none;align=center;verticalAlign=middle;whiteSpace=wrap;rounded=0;fontSize=15;fontColor=#660033;" parent="1" vertex="1">
          <mxGeometry x="992.5" y="1410" width="50" height="20" as="geometry" />
        </mxCell>
        <mxCell id="DmJhWEfxrVPuvcuLkCye-21" value="&amp;nbsp;消息中间件" style="shape=cylinder3;whiteSpace=wrap;html=1;boundedLbl=1;backgroundOutline=1;size=15;fontSize=18;strokeColor=#b85450;gradientColor=#ea6b66;direction=south;fillColor=#f8cecc;rotation=0;fontColor=#CC0000;" parent="1" vertex="1">
          <mxGeometry x="1230" y="860" width="210" height="60" as="geometry" />
        </mxCell>
        <mxCell id="DmJhWEfxrVPuvcuLkCye-28" value="执法船" style="text;html=1;strokeColor=none;fillColor=none;align=center;verticalAlign=middle;whiteSpace=wrap;rounded=0;fontSize=16;fontColor=#660033;" parent="1" vertex="1">
          <mxGeometry x="1465" y="1440" width="50" height="20" as="geometry" />
        </mxCell>
        <mxCell id="DmJhWEfxrVPuvcuLkCye-37" value="" style="group" parent="1" vertex="1" connectable="0">
          <mxGeometry x="1180" y="1400" width="127.5" height="100" as="geometry" />
        </mxCell>
        <mxCell id="DmJhWEfxrVPuvcuLkCye-38" value="执勤人员" style="text;html=1;strokeColor=none;fillColor=none;align=center;verticalAlign=middle;whiteSpace=wrap;rounded=0;fontColor=#CC6600;fontSize=14;" parent="DmJhWEfxrVPuvcuLkCye-37" vertex="1">
          <mxGeometry x="17.5" y="80" width="60" height="20" as="geometry" />
        </mxCell>
        <mxCell id="DmJhWEfxrVPuvcuLkCye-40" value="移动端" style="text;html=1;strokeColor=none;fillColor=none;align=center;verticalAlign=middle;whiteSpace=wrap;rounded=0;fontSize=16;fontColor=#660033;" parent="DmJhWEfxrVPuvcuLkCye-37" vertex="1">
          <mxGeometry x="77.5" y="7.5" width="50" height="20" as="geometry" />
        </mxCell>
        <mxCell id="DmJhWEfxrVPuvcuLkCye-41" value="" style="shape=actor;whiteSpace=wrap;html=1;fillColor=#fad9d5;strokeColor=#ae4132;" parent="DmJhWEfxrVPuvcuLkCye-37" vertex="1">
          <mxGeometry y="11" width="50" height="60" as="geometry" />
        </mxCell>
        <mxCell id="DmJhWEfxrVPuvcuLkCye-42" value="" style="shape=image;html=1;verticalAlign=top;verticalLabelPosition=bottom;labelBackgroundColor=#ffffff;imageAspect=0;aspect=fixed;image=https://cdn2.iconfinder.com/data/icons/kitchen-appliances-computers-and-electronics/32/Appliances-06-128.png;gradientColor=#ffffff;fontColor=#EA6B66;" parent="DmJhWEfxrVPuvcuLkCye-37" vertex="1">
          <mxGeometry x="41" width="35" height="35" as="geometry" />
        </mxCell>
        <mxCell id="DmJhWEfxrVPuvcuLkCye-46" value="" style="points=[];aspect=fixed;html=1;align=center;shadow=0;dashed=0;image;image=img/lib/allied_telesis/buildings/School_Building.svg;fontSize=14;fontColor=#0F0C0E;strokeColor=#CC0066;fillColor=none;gradientColor=#ffffff;" parent="1" vertex="1">
          <mxGeometry x="1650" y="1340" width="135" height="136.47" as="geometry" />
        </mxCell>
        <mxCell id="DmJhWEfxrVPuvcuLkCye-49" value="后台服务" style="rounded=0;whiteSpace=wrap;html=1;fontSize=18;strokeColor=#10739e;fillColor=#b1ddf0;fontColor=#009999;" parent="1" vertex="1">
          <mxGeometry x="1515" y="850" width="120" height="80" as="geometry" />
        </mxCell>
        <mxCell id="DmJhWEfxrVPuvcuLkCye-55" value="" style="shape=image;html=1;verticalAlign=top;verticalLabelPosition=bottom;labelBackgroundColor=#ffffff;imageAspect=0;aspect=fixed;image=https://cdn1.iconfinder.com/data/icons/innovation-technology-2/512/tech_0011-128.png;fontSize=16;fontColor=#0F0C0E;strokeColor=#CC0066;fillColor=none;gradientColor=#ffffff;" parent="1" vertex="1">
          <mxGeometry x="1220" y="1000" width="128" height="128" as="geometry" />
        </mxCell>
        <mxCell id="DmJhWEfxrVPuvcuLkCye-62" value="" style="endArrow=none;html=1;dashed=1;fontSize=16;fontColor=#0F0C0E;strokeColor=#003366;strokeWidth=3;entryX=0.156;entryY=1.009;entryDx=0;entryDy=0;entryPerimeter=0;" parent="1" edge="1" target="DmJhWEfxrVPuvcuLkCye-24">
          <mxGeometry width="50" height="50" relative="1" as="geometry">
            <mxPoint x="1010" y="1398" as="sourcePoint" />
            <mxPoint x="1000" y="1020" as="targetPoint" />
            <Array as="points">
              <mxPoint x="1000" y="1210" />
            </Array>
          </mxGeometry>
        </mxCell>
        <mxCell id="DmJhWEfxrVPuvcuLkCye-63" value="" style="endArrow=classic;html=1;dashed=1;fontSize=18;fontColor=#0F0C0E;strokeColor=#003366;strokeWidth=3;entryX=0.25;entryY=1;entryDx=0;entryDy=0;" parent="1" edge="1">
          <mxGeometry width="50" height="50" relative="1" as="geometry">
            <mxPoint x="999" y="980" as="sourcePoint" />
            <mxPoint x="998.5" y="920" as="targetPoint" />
          </mxGeometry>
        </mxCell>
        <mxCell id="DmJhWEfxrVPuvcuLkCye-65" value="" style="endArrow=classic;html=1;dashed=1;fontSize=16;fontColor=#0F0C0E;strokeColor=#003366;strokeWidth=3;entryX=0.69;entryY=1;entryDx=0;entryDy=0;entryPerimeter=0;" parent="1" edge="1">
          <mxGeometry width="50" height="50" relative="1" as="geometry">
            <mxPoint x="1120" y="990" as="sourcePoint" />
            <mxPoint x="1091.9" y="920" as="targetPoint" />
          </mxGeometry>
        </mxCell>
        <mxCell id="DmJhWEfxrVPuvcuLkCye-68" value="" style="endArrow=classic;html=1;dashed=1;fontSize=18;fontColor=#0F0C0E;strokeColor=#003366;strokeWidth=3;" parent="1" edge="1">
          <mxGeometry width="50" height="50" relative="1" as="geometry">
            <mxPoint x="1066" y="990" as="sourcePoint" />
            <mxPoint x="1052.25" y="920" as="targetPoint" />
            <Array as="points" />
          </mxGeometry>
        </mxCell>
        <mxCell id="DmJhWEfxrVPuvcuLkCye-73" value="" style="endArrow=classic;html=1;dashed=1;fontSize=18;fontColor=#0F0C0E;strokeColor=#003366;strokeWidth=3;" parent="1" edge="1">
          <mxGeometry width="50" height="50" relative="1" as="geometry">
            <mxPoint x="1027.26" y="987" as="sourcePoint" />
            <mxPoint x="1027.26" y="920" as="targetPoint" />
            <Array as="points" />
          </mxGeometry>
        </mxCell>
        <mxCell id="DmJhWEfxrVPuvcuLkCye-75" value="" style="endArrow=classic;html=1;fontSize=18;fontColor=#0F0C0E;strokeColor=#003366;strokeWidth=3;entryX=0.5;entryY=1;entryDx=0;entryDy=0;entryPerimeter=0;exitX=1;exitY=0.5;exitDx=0;exitDy=0;" parent="1" source="DmJhWEfxrVPuvcuLkCye-15" target="DmJhWEfxrVPuvcuLkCye-21" edge="1">
          <mxGeometry width="50" height="50" relative="1" as="geometry">
            <mxPoint x="850" y="1110" as="sourcePoint" />
            <mxPoint x="900" y="1060" as="targetPoint" />
          </mxGeometry>
        </mxCell>
        <mxCell id="DmJhWEfxrVPuvcuLkCye-76" value="" style="endArrow=classic;html=1;fontSize=18;fontColor=#0F0C0E;strokeColor=#003366;strokeWidth=3;entryX=0;entryY=0.5;entryDx=0;entryDy=0;exitX=0.5;exitY=0;exitDx=0;exitDy=0;exitPerimeter=0;" parent="1" source="DmJhWEfxrVPuvcuLkCye-21" target="DmJhWEfxrVPuvcuLkCye-49" edge="1">
          <mxGeometry width="50" height="50" relative="1" as="geometry">
            <mxPoint x="880" y="1140" as="sourcePoint" />
            <mxPoint x="930" y="1090" as="targetPoint" />
          </mxGeometry>
        </mxCell>
        <mxCell id="DmJhWEfxrVPuvcuLkCye-78" value="" style="endArrow=classic;html=1;fontSize=18;fontColor=#0F0C0E;strokeColor=#003366;strokeWidth=3;entryX=0.25;entryY=0;entryDx=0;entryDy=0;edgeStyle=orthogonalEdgeStyle;curved=1;" parent="1" source="DmJhWEfxrVPuvcuLkCye-2" target="DmJhWEfxrVPuvcuLkCye-49" edge="1">
          <mxGeometry width="50" height="50" relative="1" as="geometry">
            <mxPoint x="1760" y="800" as="sourcePoint" />
            <mxPoint x="1810" y="750" as="targetPoint" />
          </mxGeometry>
        </mxCell>
        <mxCell id="DmJhWEfxrVPuvcuLkCye-82" value="" style="shape=mxgraph.cisco.buildings.telecommuter_house;html=1;pointerEvents=1;dashed=0;fillColor=#dae8fc;strokeColor=#6c8ebf;strokeWidth=2;verticalLabelPosition=bottom;verticalAlign=top;align=center;outlineConnect=0;fontSize=16;gradientColor=#7ea6e0;" parent="1" vertex="1">
          <mxGeometry x="1450" y="1230" width="65" height="53.53" as="geometry" />
        </mxCell>
        <mxCell id="DmJhWEfxrVPuvcuLkCye-83" value="" style="shape=mxgraph.cisco.buildings.telecommuter_house;html=1;pointerEvents=1;dashed=0;fillColor=#dae8fc;strokeColor=#6c8ebf;strokeWidth=2;verticalLabelPosition=bottom;verticalAlign=top;align=center;outlineConnect=0;fontSize=16;gradientColor=#7ea6e0;" parent="1" vertex="1">
          <mxGeometry x="1365" y="1176.47" width="65" height="53.53" as="geometry" />
        </mxCell>
        <mxCell id="DmJhWEfxrVPuvcuLkCye-84" value="" style="endArrow=none;html=1;fontSize=18;fontColor=#0F0C0E;strokeColor=#003366;strokeWidth=3;exitX=1;exitY=0.5;exitDx=0;exitDy=0;edgeStyle=orthogonalEdgeStyle;dashed=1;" parent="1" source="DmJhWEfxrVPuvcuLkCye-49" edge="1">
          <mxGeometry width="50" height="50" relative="1" as="geometry">
            <mxPoint x="1850" y="1170" as="sourcePoint" />
            <mxPoint x="1720" y="980" as="targetPoint" />
          </mxGeometry>
        </mxCell>
        <mxCell id="DmJhWEfxrVPuvcuLkCye-86" value="" style="endArrow=classic;html=1;dashed=1;fontSize=16;fontColor=#0F0C0E;strokeColor=#003366;strokeWidth=3;entryX=0.531;entryY=0.01;entryDx=0;entryDy=0;entryPerimeter=0;" parent="1" target="DmJhWEfxrVPuvcuLkCye-46" edge="1">
          <mxGeometry width="50" height="50" relative="1" as="geometry">
            <mxPoint x="1720" y="1020" as="sourcePoint" />
            <mxPoint x="1900" y="1160" as="targetPoint" />
          </mxGeometry>
        </mxCell>
        <mxCell id="DmJhWEfxrVPuvcuLkCye-92" value="" style="endArrow=classic;html=1;dashed=1;fontSize=16;fontColor=#0F0C0E;strokeWidth=3;entryX=0.5;entryY=0;entryDx=0;entryDy=0;exitX=0.509;exitY=-0.012;exitDx=0;exitDy=0;exitPerimeter=0;strokeColor=#00CC00;" parent="1" source="DmJhWEfxrVPuvcuLkCye-46" target="DmJhWEfxrVPuvcuLkCye-28" edge="1">
          <mxGeometry width="50" height="50" relative="1" as="geometry">
            <mxPoint x="1710" y="1650" as="sourcePoint" />
            <mxPoint x="1760" y="1600" as="targetPoint" />
            <Array as="points">
              <mxPoint x="1670" y="1330" />
              <mxPoint x="1610" y="1330" />
              <mxPoint x="1570" y="1338" />
              <mxPoint x="1540" y="1360" />
              <mxPoint x="1510" y="1390" />
            </Array>
          </mxGeometry>
        </mxCell>
        <mxCell id="DmJhWEfxrVPuvcuLkCye-93" value="" style="endArrow=classic;html=1;dashed=1;fontSize=16;fontColor=#0F0C0E;strokeColor=#00CC66;strokeWidth=3;" parent="1" edge="1">
          <mxGeometry width="50" height="50" relative="1" as="geometry">
            <mxPoint x="1720" y="1340" as="sourcePoint" />
            <mxPoint x="1250" y="1400" as="targetPoint" />
            <Array as="points">
              <mxPoint x="1680" y="1320" />
              <mxPoint x="1610" y="1310" />
              <mxPoint x="1550" y="1310" />
              <mxPoint x="1450" y="1330" />
              <mxPoint x="1350" y="1360" />
            </Array>
          </mxGeometry>
        </mxCell>
        <mxCell id="DmJhWEfxrVPuvcuLkCye-96" value="" style="endArrow=classic;html=1;dashed=1;fontSize=16;fontColor=#0F0C0E;strokeWidth=3;strokeColor=#FF0000;" parent="1" edge="1">
          <mxGeometry width="50" height="50" relative="1" as="geometry">
            <mxPoint x="1400" y="1170" as="sourcePoint" />
            <mxPoint x="1320" y="1080" as="targetPoint" />
            <Array as="points">
              <mxPoint x="1390" y="1140" />
              <mxPoint x="1370" y="1110" />
            </Array>
          </mxGeometry>
        </mxCell>
        <mxCell id="DmJhWEfxrVPuvcuLkCye-97" value="执勤点" style="text;html=1;strokeColor=none;fillColor=none;align=center;verticalAlign=middle;whiteSpace=wrap;rounded=0;fontSize=16;fontColor=#0066CC;" parent="1" vertex="1">
          <mxGeometry x="1430" y="1176" width="50" height="20" as="geometry" />
        </mxCell>
        <mxCell id="DmJhWEfxrVPuvcuLkCye-98" value="执勤点" style="text;html=1;strokeColor=none;fillColor=none;align=center;verticalAlign=middle;whiteSpace=wrap;rounded=0;fontSize=16;fontColor=#0066CC;" parent="1" vertex="1">
          <mxGeometry x="1515" y="1230" width="50" height="20" as="geometry" />
        </mxCell>
        <mxCell id="DmJhWEfxrVPuvcuLkCye-99" value="指挥中心" style="text;html=1;strokeColor=none;fillColor=none;align=center;verticalAlign=middle;whiteSpace=wrap;rounded=0;fontSize=18;fontColor=#000099;" parent="1" vertex="1">
          <mxGeometry x="1690" y="1480" width="80" height="20" as="geometry" />
        </mxCell>
        <mxCell id="DmJhWEfxrVPuvcuLkCye-100" value="无人机" style="text;html=1;strokeColor=none;fillColor=none;align=center;verticalAlign=middle;whiteSpace=wrap;rounded=0;fontSize=16;fontColor=#000099;" parent="1" vertex="1">
          <mxGeometry x="1348" y="1040" width="62" height="20" as="geometry" />
        </mxCell>
        <mxCell id="DmJhWEfxrVPuvcuLkCye-32" value="执勤人员" style="text;html=1;strokeColor=none;fillColor=none;align=center;verticalAlign=middle;whiteSpace=wrap;rounded=0;fontSize=14;fontColor=#CC6600;" parent="1" vertex="1">
          <mxGeometry x="1180" y="1290" width="60" height="20" as="geometry" />
        </mxCell>
        <mxCell id="DmJhWEfxrVPuvcuLkCye-33" value="" style="group" parent="1" vertex="1" connectable="0">
          <mxGeometry x="1160" y="1220" width="127.5" height="70" as="geometry" />
        </mxCell>
        <mxCell id="DmJhWEfxrVPuvcuLkCye-12" value="移动端" style="text;html=1;strokeColor=none;fillColor=none;align=center;verticalAlign=middle;whiteSpace=wrap;rounded=0;fontSize=16;fontColor=#660033;" parent="DmJhWEfxrVPuvcuLkCye-33" vertex="1">
          <mxGeometry x="77.5" y="7.5" width="50" height="20" as="geometry" />
        </mxCell>
        <mxCell id="DmJhWEfxrVPuvcuLkCye-10" value="" style="shape=actor;whiteSpace=wrap;html=1;fillColor=#fad9d5;strokeColor=#ae4132;" parent="DmJhWEfxrVPuvcuLkCye-33" vertex="1">
          <mxGeometry y="10" width="50" height="60" as="geometry" />
        </mxCell>
        <mxCell id="DmJhWEfxrVPuvcuLkCye-8" value="" style="shape=image;html=1;verticalAlign=top;verticalLabelPosition=bottom;labelBackgroundColor=#ffffff;imageAspect=0;aspect=fixed;image=https://cdn2.iconfinder.com/data/icons/kitchen-appliances-computers-and-electronics/32/Appliances-06-128.png;gradientColor=#ffffff;fontColor=#EA6B66;" parent="DmJhWEfxrVPuvcuLkCye-33" vertex="1">
          <mxGeometry x="41" width="35" height="35" as="geometry" />
        </mxCell>
        <mxCell id="7P6nr4rJzuZhVIYS8sgu-1" value="" style="curved=1;endArrow=classic;html=1;dashed=1;fontSize=16;fontColor=#666600;strokeWidth=3;strokeColor=#FF3399;" edge="1" parent="1">
          <mxGeometry width="50" height="50" relative="1" as="geometry">
            <mxPoint x="1400" y="1170" as="sourcePoint" />
            <mxPoint x="1020" y="1400" as="targetPoint" />
            <Array as="points">
              <mxPoint x="1330" y="1130" />
              <mxPoint x="1170" y="1170" />
              <mxPoint x="1060" y="1260" />
            </Array>
          </mxGeometry>
        </mxCell>
        <mxCell id="7P6nr4rJzuZhVIYS8sgu-2" value="" style="curved=1;endArrow=classic;html=1;dashed=1;fontSize=16;fontColor=#666600;strokeColor=#FF3399;strokeWidth=3;exitX=0.5;exitY=0;exitDx=0;exitDy=0;exitPerimeter=0;" edge="1" parent="1" source="DmJhWEfxrVPuvcuLkCye-82">
          <mxGeometry width="50" height="50" relative="1" as="geometry">
            <mxPoint x="740" y="1350" as="sourcePoint" />
            <mxPoint x="1483" y="1430" as="targetPoint" />
            <Array as="points">
              <mxPoint x="1370" y="1230" />
            </Array>
          </mxGeometry>
        </mxCell>
        <mxCell id="7P6nr4rJzuZhVIYS8sgu-3" value="" style="curved=1;endArrow=none;html=1;dashed=1;fontSize=16;fontColor=#666600;strokeWidth=3;endFill=0;exitX=0;exitY=0;exitDx=0;exitDy=0;strokeColor=#000033;" edge="1" parent="1" source="DmJhWEfxrVPuvcuLkCye-42">
          <mxGeometry width="50" height="50" relative="1" as="geometry">
            <mxPoint x="1201" y="1220" as="sourcePoint" />
            <mxPoint x="1030" y="1010" as="targetPoint" />
            <Array as="points">
              <mxPoint x="1060" y="1230" />
            </Array>
          </mxGeometry>
        </mxCell>
        <mxCell id="7P6nr4rJzuZhVIYS8sgu-4" value="" style="curved=1;endArrow=none;html=1;dashed=1;fontSize=16;fontColor=#666600;strokeColor=#000033;strokeWidth=3;endFill=0;exitX=0.5;exitY=0;exitDx=0;exitDy=0;" edge="1" parent="1" source="DmJhWEfxrVPuvcuLkCye-8">
          <mxGeometry width="50" height="50" relative="1" as="geometry">
            <mxPoint x="850" y="1190" as="sourcePoint" />
            <mxPoint x="1070" y="1010" as="targetPoint" />
            <Array as="points">
              <mxPoint x="1170" y="1180" />
              <mxPoint x="1090" y="1070" />
            </Array>
          </mxGeometry>
        </mxCell>
        <mxCell id="7P6nr4rJzuZhVIYS8sgu-5" value="" style="curved=1;endArrow=classic;html=1;dashed=1;fontSize=16;fontColor=#666600;strokeWidth=3;entryX=0.5;entryY=0;entryDx=0;entryDy=0;entryPerimeter=0;strokeColor=#00CC00;" edge="1" parent="1" target="DmJhWEfxrVPuvcuLkCye-83">
          <mxGeometry width="50" height="50" relative="1" as="geometry">
            <mxPoint x="1720" y="1340" as="sourcePoint" />
            <mxPoint x="970" y="1190" as="targetPoint" />
            <Array as="points">
              <mxPoint x="1670" y="1160" />
              <mxPoint x="1490" y="1130" />
            </Array>
          </mxGeometry>
        </mxCell>
        <mxCell id="7P6nr4rJzuZhVIYS8sgu-6" value="" style="curved=1;endArrow=classic;html=1;dashed=1;fontSize=16;fontColor=#666600;strokeColor=#00CC00;strokeWidth=3;endFill=1;entryX=0.5;entryY=0;entryDx=0;entryDy=0;entryPerimeter=0;" edge="1" parent="1" target="DmJhWEfxrVPuvcuLkCye-82">
          <mxGeometry width="50" height="50" relative="1" as="geometry">
            <mxPoint x="1720" y="1330" as="sourcePoint" />
            <mxPoint x="950" y="1240" as="targetPoint" />
            <Array as="points">
              <mxPoint x="1600" y="1150" />
            </Array>
          </mxGeometry>
        </mxCell>
        <mxCell id="7P6nr4rJzuZhVIYS8sgu-7" value="" style="curved=1;endArrow=classic;html=1;dashed=1;fontSize=16;fontColor=#666600;strokeColor=#00CC00;strokeWidth=3;" edge="1" parent="1">
          <mxGeometry width="50" height="50" relative="1" as="geometry">
            <mxPoint x="1720" y="1330" as="sourcePoint" />
            <mxPoint x="1030" y="1400" as="targetPoint" />
            <Array as="points">
              <mxPoint x="1450" y="1240" />
              <mxPoint x="1090" y="1310" />
            </Array>
          </mxGeometry>
        </mxCell>
        <mxCell id="7P6nr4rJzuZhVIYS8sgu-8" value="" style="curved=1;endArrow=classic;html=1;dashed=1;fontSize=16;fontColor=#666600;strokeColor=#00CC00;strokeWidth=3;" edge="1" parent="1">
          <mxGeometry width="50" height="50" relative="1" as="geometry">
            <mxPoint x="1720" y="1340" as="sourcePoint" />
            <mxPoint x="1220" y="1220" as="targetPoint" />
            <Array as="points">
              <mxPoint x="1590" y="1230" />
              <mxPoint x="1320" y="1180" />
            </Array>
          </mxGeometry>
        </mxCell>
        <mxCell id="7P6nr4rJzuZhVIYS8sgu-9" value="" style="curved=1;endArrow=none;html=1;dashed=1;fontSize=16;fontColor=#666600;strokeWidth=3;endFill=0;strokeColor=#001933;" edge="1" parent="1">
          <mxGeometry width="50" height="50" relative="1" as="geometry">
            <mxPoint x="1470" y="1440" as="sourcePoint" />
            <mxPoint x="1130" y="1010" as="targetPoint" />
            <Array as="points">
              <mxPoint x="1310" y="1260" />
              <mxPoint x="1210" y="1150" />
            </Array>
          </mxGeometry>
        </mxCell>
      </root>
    </mxGraphModel>
  </diagram>
</mxfile>
